<?xml version="1.0" encoding="iso-8859-1"?>
<!-- Generator: Adobe Illustrator 19.0.0, SVG Export Plug-In . SVG Version: 6.00 Build 0)  -->
<svg version="1.1" id="Layer_1" xmlns="http://www.w3.org/2000/svg" xmlns:xlink="http://www.w3.org/1999/xlink" x="0px" y="0px"
	 viewBox="0 0 511.986 511.986" style="enable-background:new 0 0 511.986 511.986;" xml:space="preserve">
<path style="fill:#656D78;" d="M460.202,386.35l-1.812-0.531c-26.469-7.094-35.436-13.938-47.217-18.406
	c-41.781-15.937-52.656-27.405-55.436-32.826c-0.109-0.203-0.188-0.406-0.281-0.609l-0.344-48.546l-99.123-1.125l-99.13,1.125
	l-0.344,48.546c-0.086,0.203-0.164,0.406-0.266,0.609c-2.781,5.421-13.656,16.89-55.452,32.826
	c-11.781,4.469-20.741,11.312-47.209,18.406l-1.812,0.531c-24.093,7.969-40.304,30.312-40.304,55.529v70.107h244.517h244.525
	v-70.107C500.514,416.662,484.296,394.319,460.202,386.35z"/>
<path style="fill:#DBAFA5;" d="M382.126,354.742L382.126,354.742c-3.25-1.672-6.109-3.25-8.641-4.766h-0.016
	c-0.844-0.5-1.641-1-2.406-1.469c-0.016-0.016-0.016-0.016-0.016-0.016c-0.359-0.234-0.719-0.453-1.062-0.688
	c-0.031-0.016-0.062-0.031-0.094-0.047c-0.703-0.453-1.375-0.906-2.016-1.344c-0.047-0.031-0.078-0.062-0.109-0.094
	c-0.281-0.188-0.547-0.375-0.812-0.547c-0.047-0.047-0.094-0.078-0.156-0.109c-0.578-0.422-1.125-0.828-1.656-1.219
	c-0.062-0.047-0.125-0.094-0.188-0.141c-0.203-0.156-0.406-0.312-0.594-0.453c-0.062-0.047-0.125-0.094-0.188-0.156
	c-0.25-0.188-0.469-0.375-0.719-0.562l0,0c-0.219,0.219-0.344,0.109-0.375-0.297c-4.25-3.5-6.344-6.28-7.342-8.249
	c-0.109-0.203-0.188-0.406-0.281-0.609l-0.344-48.546l-99.123-1.125l-99.13,1.125l-0.344,48.546
	c-0.086,0.203-0.164,0.406-0.266,0.609c-1.835,3.578-7.203,9.78-22.655,18.187c4.429,5.297,13.578,15.046,27.757,24.702
	c18.679,12.703,50.256,27.844,94.638,27.844c44.217,0,77.342-15.031,97.326-27.641C367.141,368.944,376.798,360.164,382.126,354.742
	z"/>
<path style="fill:#EAC6BB;" d="M393.548,191.48c0,89.373-85.217,171.62-137.559,171.62c-52.35,0-137.551-82.247-137.551-171.62
	S180.022,43.14,255.989,43.14S393.548,102.108,393.548,191.48z"/>
<path style="fill:#965353;" d="M326.987,50.874c0,0-2.672-23.78,25.812-40.89c12.061-7.25-180.753-41.608-229.143,80.217
	c-18.179,45.78-4.742,113.138-4.742,113.138l41.905-75.139c0,0,45.671,10.672,95.169,10.672s96.826-10.672,96.826-10.672
	l40.732,63.499c0,0,15.641-60.952-1.891-101.357S326.987,50.874,326.987,50.874z"/>
<path style="fill:#434A54;" d="M382.126,354.742c-8.672-4.453-14.609-8.328-18.672-11.609c-4.906,4.594-12.373,10.797-22.264,16.969
	c-25.453,15.843-54.109,23.89-85.201,23.89c-30.897,0-58.428-7.953-81.834-23.608c-11.265-7.547-18.819-15.172-22.819-19.703
	c-3.469,3.281-8.984,7.328-17.742,12.094c4.429,5.297,13.578,15.046,27.757,24.702c18.679,12.703,50.256,27.844,94.638,27.844
	c44.217,0,77.342-15.031,97.326-27.641C367.141,368.944,376.798,360.164,382.126,354.742z"/>
<path style="fill:#656D78;" d="M120.11,213.324h271.75c1.062-7.047,1.656-14.156,1.672-21.328H118.446
	C118.47,199.167,119.047,206.277,120.11,213.324z"/>
<g>
	<path style="fill:#434A54;" d="M251.489,202.652c0,20.625-2.609,37.343-53.334,37.343s-53.334-16.718-53.334-37.343
		c0-20.608,7.844-37.327,53.334-37.327C243.654,165.325,251.489,182.043,251.489,202.652z"/>
	<path style="fill:#434A54;" d="M369.282,202.652c0,20.625-2.609,37.343-53.326,37.343c-50.732,0-53.342-16.718-53.342-37.343
		c0-20.608,7.836-37.327,53.342-37.327C361.438,165.325,369.282,182.043,369.282,202.652z"/>
</g>
<path style="fill:#E6E9ED;" d="M393.548,191.215c0,0.094,0,0.172,0,0.266c0,9.062-0.891,18.046-2.531,26.89
	c3.953,6.64,5.047,14.921,2.719,23.468c-2.938,10.828-11.188,20.625-23.219,27.609c-15.357,8.891-36.748,13.234-61.873,12.562
	l-0.562,21.327c1.938,0.047,3.844,0.078,5.75,0.078c62.717,0,93.045-28.593,100.498-55.967
	C420.376,225.182,412.048,203.011,393.548,191.215z"/>
<path style="fill:#ED5564;" d="M321.237,291.619c0.469,15.077-14.469,27.765-33.375,28.343
	c-18.904,0.578-34.592-11.172-35.053-26.25c-0.461-15.077,14.484-27.765,33.381-28.343
	C305.081,264.792,320.784,276.556,321.237,291.619z"/>
<g>
</g>
<g>
</g>
<g>
</g>
<g>
</g>
<g>
</g>
<g>
</g>
<g>
</g>
<g>
</g>
<g>
</g>
<g>
</g>
<g>
</g>
<g>
</g>
<g>
</g>
<g>
</g>
<g>
</g>
</svg>
